<svg xmlns="http://www.w3.org/2000/svg" viewBox="0 0 300 350">
  <g transform="translate(0.000000,-20.000000)">
    <g>
      <g>
        <path style="fill:#E500E5;" d="M8.026,58.63C-0.119,63.447-2.468,74.174,2.851,82c11.102,16.337,22.204,32.673,33.307,49.009
				c4.797,7.059,14.214,9.298,21.64,5.091c27.914-15.814,58.966-23.768,90.041-23.879v-91.99
				C99.468,20.347,51.122,33.143,8.026,58.63z"></path>
      </g>
      <g>
        <path style="fill:#000000;" d="M112.75,115.72l11.023,110.236L89.139,122.052c-2.504,0.853-4.992,1.768-7.466,2.731
				l35.271,105.814l-59.082-94.532c-0.021,0.012-0.043,0.023-0.065,0.035c-2.514,1.424-5.256,2.093-7.97,2.103l76.708,122.733
				c1.304-0.879,2.876-1.393,4.567-1.393h4.016L120.601,114.36C117.977,114.762,115.359,115.205,112.75,115.72z"></path>
      </g>
      <g>
        <path style="fill:#E50095;" d="M288.974,58.63c-43.489-25.719-92.325-38.516-141.136-38.399v91.99
				c31.516-0.113,63.054,7.841,91.364,23.879c7.426,4.207,16.843,1.968,21.64-5.091c11.102-16.337,22.204-32.673,33.307-49.01
				C299.468,74.174,297.119,63.447,288.974,58.63z"></path>
      </g>
      <g>
        <path style="fill:#000000;" d="M239.203,136.1c-0.021-0.012-0.043-0.023-0.064-0.035l-59.082,94.532l35.271-105.814
				c-2.474-0.964-4.963-1.874-7.468-2.727l-34.633,103.899l11.022-110.226c-2.609-0.516-5.225-0.976-7.849-1.378l-14.519,145.191
				h4.016c1.691,0,3.263,0.514,4.567,1.393l76.708-122.733C244.458,138.194,241.717,137.525,239.203,136.1z"></path>
      </g>
    </g>
    <g style="opacity:0.49;">
      <g>
        <path style="fill:#AF0074;" d="M36.157,114.01C25.055,97.674,13.953,81.337,2.851,65.001c-0.17-0.251-0.311-0.513-0.466-0.769
				C-0.823,69.544-0.896,76.487,2.851,82c11.102,16.337,22.204,32.673,33.307,49.009c4.797,7.059,14.214,9.298,21.64,5.091
				c27.914-15.814,58.966-23.768,90.041-23.879V95.222c-31.075,0.112-62.127,8.065-90.041,23.879
				C50.371,123.309,40.955,121.069,36.157,114.01z"></path>
      </g>
      <g>
        <path style="fill:#AF0074;" d="M294.149,65.001c-11.102,16.336-22.204,32.673-33.307,49.009
				c-4.797,7.059-14.214,9.298-21.64,5.091c-28.31-16.039-59.849-23.992-91.364-23.879v16.999
				c31.516-0.113,63.054,7.841,91.364,23.879c7.426,4.207,16.843,1.968,21.64-5.091c11.102-16.337,22.204-32.673,33.307-49.01
				c3.746-5.513,3.674-12.457,0.466-17.769C294.46,64.488,294.32,64.75,294.149,65.001z"></path>
      </g>
    </g>
  </g>
  <g transform="translate(117.000000,340.000000) scale(0.0100000,-0.0100000)" fill="#000000" stroke="none">
    <path d="M3027 12784 c-290 -52 -544 -220 -705 -463 -134 -204 -189 -425 -170
-681 30 -386 296 -743 659 -886 143 -56 212 -68 389 -69 168 0 209 6 340 47
263 83 515 309 630 562 124 273 129 581 13 856 -73 174 -231 368 -378 465
-233 154 -520 216 -778 169z"></path>
    <path d="M1920 10435 c-8 -2 -49 -9 -90 -15 -106 -17 -265 -71 -371 -126 -394
-204 -653 -566 -731 -1024 -10 -59 -13 -445 -13 -1815 l0 -1740 22 -71 c71
-223 311 -355 546 -300 161 38 267 129 328 281 l24 60 3 1553 2 1552 110 0
110 0 2 -4152 3 -4153 21 -61 c59 -169 154 -284 295 -353 190 -93 392 -93 586
0 152 73 269 220 314 394 10 40 14 536 16 2472 l3 2423 105 0 105 0 0 -2407
c0 -2080 2 -2418 15 -2478 61 -293 341 -494 655 -471 260 18 457 165 538 401
l27 80 3 4153 2 4153 108 -3 107 -3 5 -1555 c4 -1101 8 -1564 16 -1585 75
-204 232 -315 447 -315 234 0 413 158 447 395 8 58 10 541 8 1770 -3 1588 -5
1696 -22 1785 -110 572 -500 992 -1046 1128 l-105 26 -1290 2 c-709 1 -1297 1
-1305 -1z"></path>
</g>
<g>
    <path id="curve" d="M-40,250a190,190 0 0,1 380,0a190,190 0 1,0 -380,0" fill="red"></path>
    <text x="30" y="70" style="font-family:Verdana;font-size:5em;stroke-width:0;font-weight: 900;letter-spacing: -10px;fill:#fff;">
    <textPath startOffset="155" textLength="220" href="#curve" id="icon-paraglider-text">1283 m</textPath></text>
</g>
  </svg>